<?xml version="1.0" standalone="no"?>
<!DOCTYPE svg PUBLIC "-//W3C//DTD SVG 20010904//EN"
 "http://www.w3.org/TR/2001/REC-SVG-20010904/DTD/svg10.dtd">
<svg version="1.0" xmlns="http://www.w3.org/2000/svg"
 width="512.000000pt" height="512.000000pt" viewBox="0 0 512.000000 512.000000"
 preserveAspectRatio="xMidYMid meet">
<metadata>
Created by potrace 1.11, written by Peter Selinger 2001-2013
</metadata>
<g transform="translate(0.000000,512.000000) scale(0.100000,-0.100000)"
fill="#000000" stroke="none">
<path d="M3705 3430 c-82 -22 -199 -50 -258 -63 l-109 -24 -46 22 c-95 46
-137 39 -172 -29 l-23 -42 -248 -78 c-217 -69 -252 -83 -273 -109 -14 -16 -23
-34 -20 -39 3 -4 1 -8 -4 -8 -14 0 -2 -51 19 -81 38 -54 139 -76 197 -44 15 8
72 28 127 44 55 16 128 38 162 49 47 15 65 17 72 8 13 -15 25 -103 36 -255 3
-41 7 -86 10 -100 2 -14 8 -62 11 -106 9 -102 12 -130 14 -130 0 0 3 -31 5
-70 4 -68 8 -115 20 -220 3 -27 8 -68 10 -90 1 -22 7 -78 11 -125 4 -47 8 -95
8 -107 0 -13 2 -23 6 -23 3 0 6 -26 6 -58 2 -113 13 -154 46 -184 41 -36 90
-45 134 -25 57 28 64 56 60 224 -2 81 -7 171 -11 198 -3 28 -8 70 -10 95 -2
25 -4 45 -5 45 -1 0 -3 18 -5 40 -1 22 -5 60 -9 85 -6 47 -12 101 -21 185 -3
28 -7 73 -10 100 -3 28 -8 66 -10 85 -3 19 -8 78 -11 130 -7 134 -11 183 -18
200 -3 8 -7 50 -10 92 -4 66 -2 78 12 82 9 3 134 35 277 71 306 77 328 86 350
132 27 55 7 106 -52 137 -59 30 -108 27 -268 -14z"/>
<path d="M2278 3342 c-30 -4 -88 -57 -89 -81 -2 -48 -12 -110 -19 -118 -2 -2
-4 -7 -5 -13 -1 -5 -4 -13 -5 -17 -1 -5 -2 -12 -1 -17 1 -4 -4 -14 -10 -22 -6
-8 -9 -14 -6 -14 4 0 0 -18 -8 -40 -8 -22 -14 -42 -15 -45 0 -3 0 -6 -1 -7 0
-2 -2 -10 -4 -18 -8 -39 -35 -129 -48 -167 -9 -22 -13 -44 -10 -47 4 -3 1 -6
-6 -6 -7 0 -11 -8 -10 -17 2 -10 0 -28 -5 -40 -4 -12 -9 -30 -11 -40 -2 -10
-8 -33 -14 -51 -5 -18 -10 -36 -11 -40 -1 -11 -22 -85 -28 -102 -3 -8 -4 -19
-3 -24 1 -4 -4 -14 -10 -22 -6 -8 -9 -14 -6 -14 3 0 0 -20 -7 -45 -8 -25 -12
-45 -9 -45 3 0 0 -7 -7 -15 -7 -8 -10 -15 -7 -15 4 0 0 -18 -8 -40 -8 -22 -12
-40 -9 -40 2 0 -1 -10 -7 -22 l-11 -21 -20 24 c-10 13 -28 42 -40 64 -11 22
-24 42 -27 45 -4 3 -18 21 -31 40 -13 19 -29 38 -35 42 -5 4 -6 8 -2 8 5 0 -5
17 -21 38 -16 20 -36 51 -45 67 -8 17 -24 39 -34 50 -11 11 -19 22 -19 25 0 3
-13 24 -27 47 -15 24 -27 47 -27 53 0 5 -4 10 -8 10 -5 0 -14 10 -20 23 -6 12
-23 40 -37 62 -14 22 -28 47 -32 55 -3 8 -18 33 -31 54 -34 54 -80 136 -95
166 -6 14 -14 27 -17 30 -3 3 -11 17 -19 32 -42 82 -119 138 -181 133 -72 -6
-110 -38 -110 -92 0 -41 33 -113 68 -148 25 -25 39 -46 64 -95 7 -14 15 -27
18 -30 3 -3 19 -27 35 -55 17 -27 34 -57 40 -66 5 -10 37 -63 70 -119 33 -56
68 -114 77 -128 20 -32 46 -78 62 -109 6 -13 14 -23 19 -23 4 0 7 -4 7 -9 0
-10 60 -112 71 -121 3 -3 12 -20 20 -37 8 -18 17 -33 21 -33 5 0 8 -5 8 -10 0
-6 12 -29 27 -53 38 -59 61 -99 69 -119 3 -10 9 -18 13 -18 4 0 13 -16 21 -35
8 -19 17 -35 20 -35 4 0 13 -19 20 -42 7 -24 16 -56 21 -72 5 -15 6 -32 3 -37
-3 -5 -1 -9 5 -9 6 0 8 -7 5 -15 -4 -8 -2 -15 3 -15 5 0 10 -12 11 -27 1 -15
6 -29 10 -32 4 -3 15 -18 25 -33 32 -51 111 -71 170 -43 32 15 42 31 53 83 3
14 15 134 17 165 1 9 5 17 10 17 4 0 6 4 3 9 -5 7 5 68 28 178 3 12 10 31 16
43 6 12 9 24 6 27 -2 3 0 17 6 32 5 14 11 33 13 41 2 8 11 44 20 80 10 36 18
71 18 78 0 6 4 12 9 12 5 0 6 5 3 10 -3 6 -3 16 2 23 4 6 9 21 11 32 5 29 10
50 12 50 1 0 3 7 5 15 1 8 13 51 25 95 12 44 22 86 22 93 1 6 5 12 10 12 5 0
7 4 4 9 -3 4 3 38 14 75 10 36 16 66 13 66 -3 0 -1 6 5 13 6 7 13 24 15 37 2
14 6 32 10 40 5 14 24 93 32 131 2 9 12 47 24 85 33 114 35 146 9 180 -12 16
-23 30 -24 32 -7 11 -104 37 -126 34z"/>
</g>
</svg>
